<?xml version="1.0" standalone="no"?>
<svg version="1.1" id="downloadSvg" xmlns="http://www.w3.org/2000/svg" xmlns:xlink="http://www.w3.org/1999/xlink" x="0px" y="0px" viewBox="0 0 1200 1200" enable-background="new 0 0 1200 1200" xml:space="preserve" height="512" width="512">
<g>
	<circle fill="#8A479B" cx="889.357" cy="1004.681" r="44.726"/>
	<g>
		<path fill="#CA99C6" d="M805.197,765.15c5.313,20.404,81.079,185.865,99.25,213.814c18.171,27.949,0,0,0,0L863.64,989.59&#10;&#9;&#9;&#9;c0,0-47.817-183.633-86.392-206.269L805.197,765.15z"/>
		<path fill="#CA99C6" d="M334.42,996.868c15.491-14.303,125.705-159.116,141.789-188.316s0,0,0,0l28.606,30.981&#10;&#9;&#9;&#9;c0,0-139.414,128.728-141.195,173.419L334.42,996.868z"/>
		<path fill="#CA99C6" d="M1035.588,465.822c-20.577,4.595-188.593,74.514-217.162,91.694c-28.569,17.18,0,0,0,0l-9.189-41.155&#10;&#9;&#9;&#9;c0,0,185.196-41.351,209.17-79.108L1035.588,465.822z"/>
		<path fill="#CA99C6" d="M669.06,175.867c-4.937,25.71-8.315,251.519-2.857,292.509s0,0,0,0l-51.452-9.703&#10;&#9;&#9;&#9;c0,0,44.435-231.387,13.252-277.229L669.06,175.867z"/>
		<path fill="#CA99C6" d="M149.199,447.02c24.619,8.902,247.114,47.599,288.453,48.628c41.339,1.029,0,0,0,0l-17.64,49.298&#10;&#9;&#9;&#9;c0,0-221.574-80.121-271.733-56.501L149.199,447.02z"/>
		<path fill="#CA99C6" d="M399.717,183.298c8.991,24.587,122.25,219.968,148.015,252.312c25.765,32.344,0,0,0,0l-49.114,18.146&#10;&#9;&#9;&#9;c0,0-80.919-221.284-131.241-244.555L399.717,183.298z"/>
		<circle fill="#CA99C6" cx="622.1" cy="605.85" r="283.264"/>
		<circle fill="#8A479B" cx="515.617" cy="698.939" r="74.543"/>
		<circle fill="#8A479B" cx="349.62" cy="981.822" r="74.543"/>
		<circle fill="#8A479B" cx="124.555" cy="452.176" r="74.543"/>
		<circle fill="#8A479B" cx="400.964" cy="216.797" r="59.635"/>
		<circle fill="#8A479B" cx="651.121" cy="173.445" r="29.817"/>
		<circle fill="#8A479B" cx="1075.445" cy="422.441" r="74.543"/>
		<circle fill="#8A479B" cx="467.801" cy="515.306" r="29.817"/>
		<circle fill="#8A479B" cx="575.556" cy="552.609" r="22.363"/>
	</g>
</g>
</svg>